<svg width="64" height="64" viewBox="0 0 64 64" fill="none" xmlns="http://www.w3.org/2000/svg">
<path d="M52.4 42.0266L33.7334 58.0266C33.597 58.1166 33.4544 58.1968 33.3067 58.2666L32.9867 58.4799C32.3531 58.7323 31.6469 58.7323 31.0134 58.4799L30.6934 58.2666C30.5456 58.1968 30.403 58.1166 30.2667 58.0266L11.6 42.0266C10.4807 41.0693 10.3494 39.3859 11.3067 38.2666C12.264 37.1473 13.9474 37.016 15.0667 37.9733L29.3334 50.2133V13.9999C29.3334 12.5272 30.5273 11.3333 32 11.3333C33.4728 11.3333 34.6667 12.5272 34.6667 13.9999V50.2133L48.9334 37.9733C50.0527 37.016 51.7361 37.1473 52.6934 38.2666C53.6506 39.3859 53.5193 41.0693 52.4 42.0266Z" fill="white"/>
</svg>
